<svg width="70" height="23" viewBox="0 0 70 23" fill="none" xmlns="http://www.w3.org/2000/svg">
<path id="Vector" d="M50.8882 1.65117C49.2612 1.05831 47.5414 0.760804 45.8097 0.772673C40.2097 0.772673 36.2547 3.59367 36.2267 7.64317C36.1917 10.6182 39.0372 12.2947 41.1897 13.2887C43.3982 14.3107 44.1367 14.9547 44.1297 15.8682C44.1157 17.2577 42.3657 17.8877 40.7382 17.8877C38.5017 17.8877 37.2803 17.5762 35.4007 16.7957L34.7042 16.4702L33.9097 21.1322C35.2712 21.6992 37.7247 22.1857 40.2587 22.2277C46.2122 22.2277 50.1042 19.4242 50.1497 15.1157C50.1987 12.7392 48.6587 10.9437 45.4177 9.45967C43.4472 8.49717 42.2257 7.85317 42.2257 6.87667C42.2257 6.01217 43.2722 5.08817 45.4597 5.08817C46.9156 5.05295 48.3624 5.32609 49.7052 5.88967L50.2302 6.12417L51.0247 1.61967L50.8882 1.65117ZM65.4202 1.15067H61.0452C59.6838 1.15067 58.6583 1.52517 58.0633 2.87617L49.6492 21.9372H55.6027L56.7927 18.8117L64.0587 18.8187C64.2302 19.5502 64.7552 21.9372 64.7552 21.9372H70.0052L65.4202 1.15067ZM28.1732 0.975671H33.8467L30.2977 21.7727H24.6312L28.1732 0.968672V0.975671ZM13.7708 12.4382L14.3588 15.3257L19.9027 1.15067H25.9122L16.9837 21.9092H10.9882L6.08825 4.33217C6.00889 4.04234 5.82251 3.79342 5.56675 3.63567C3.80065 2.72335 1.92936 2.03102 -0.00524902 1.57417L0.0717508 1.13667H9.20325C10.4423 1.18567 11.4397 1.57417 11.7722 2.89717L13.7673 12.4487V12.4382H13.7708ZM58.4202 14.5592L60.6812 8.74217C60.6532 8.80517 61.1468 7.54167 61.4338 6.76117L61.8223 8.55667L63.1348 14.5557H58.4168V14.5592H58.4202Z" fill="#54A8BA"/>
</svg>
